<mxfile host="drawio-plugin" modified="2024-11-24T21:36:14.877Z" agent="Mozilla/5.0 (X11; Linux x86_64) AppleWebKit/537.36 (KHTML, like Gecko) Chrome/122.0.0.0 Safari/537.36" etag="6MRZZWk3Z9Ltoa7UDCMF" version="22.1.22" type="embed">
  <diagram id="8t7fDsX5JY08Et9z2ZFi" name="Page-1">
    <mxGraphModel dx="1960" dy="713" grid="1" gridSize="10" guides="1" tooltips="1" connect="1" arrows="1" fold="1" page="1" pageScale="1" pageWidth="850" pageHeight="1100" math="0" shadow="0">
      <root>
        <mxCell id="0" />
        <mxCell id="1" parent="0" />
        <mxCell id="3" value="Recurrent Neural Network Architecture" style="text;html=1;strokeColor=none;fillColor=none;align=left;verticalAlign=middle;whiteSpace=wrap;rounded=0;fontStyle=1;fontSize=18;" parent="1" vertex="1">
          <mxGeometry x="-180" y="80" width="430" height="30" as="geometry" />
        </mxCell>
        <mxCell id="14" style="edgeStyle=orthogonalEdgeStyle;rounded=0;orthogonalLoop=1;jettySize=auto;html=1;exitX=0.5;exitY=0;exitDx=0;exitDy=0;entryX=0.5;entryY=1;entryDx=0;entryDy=0;" parent="1" source="10" target="13" edge="1">
          <mxGeometry relative="1" as="geometry">
            <mxPoint x="297" y="361.5" as="targetPoint" />
          </mxGeometry>
        </mxCell>
        <mxCell id="92" value="" style="edgeStyle=orthogonalEdgeStyle;rounded=0;orthogonalLoop=1;jettySize=auto;html=1;" edge="1" parent="1" source="10">
          <mxGeometry relative="1" as="geometry">
            <mxPoint x="170" y="447.5" as="targetPoint" />
          </mxGeometry>
        </mxCell>
        <mxCell id="10" value="x" style="ellipse;whiteSpace=wrap;html=1;aspect=fixed;" parent="1" vertex="1">
          <mxGeometry x="130" y="527.5" width="80" height="80" as="geometry" />
        </mxCell>
        <mxCell id="13" value="" style="rounded=0;whiteSpace=wrap;html=1;" parent="1" vertex="1">
          <mxGeometry x="100" y="248.5" width="140" height="230" as="geometry" />
        </mxCell>
        <mxCell id="31" value="RNN Layer" style="text;html=1;strokeColor=none;fillColor=none;align=left;verticalAlign=middle;whiteSpace=wrap;rounded=0;fontSize=15;" parent="1" vertex="1">
          <mxGeometry x="-180" y="160" width="120" height="30" as="geometry" />
        </mxCell>
        <mxCell id="34" value="normal" style="ellipse;whiteSpace=wrap;html=1;aspect=fixed;" parent="1" vertex="1">
          <mxGeometry x="450" y="444" width="80" height="80" as="geometry" />
        </mxCell>
        <mxCell id="35" value="abnormal" style="ellipse;whiteSpace=wrap;html=1;aspect=fixed;" parent="1" vertex="1">
          <mxGeometry x="450" y="234" width="80" height="80" as="geometry" />
        </mxCell>
        <mxCell id="37" value="Output Layer" style="text;html=1;strokeColor=none;fillColor=none;align=center;verticalAlign=middle;whiteSpace=wrap;rounded=0;fontSize=15;" parent="1" vertex="1">
          <mxGeometry x="425" y="160" width="120" height="30" as="geometry" />
        </mxCell>
        <mxCell id="74" value="" style="ellipse;whiteSpace=wrap;html=1;aspect=fixed;" parent="1" vertex="1">
          <mxGeometry x="154.5" y="311.5" width="35" height="35" as="geometry" />
        </mxCell>
        <mxCell id="76" value="" style="ellipse;whiteSpace=wrap;html=1;aspect=fixed;" parent="1" vertex="1">
          <mxGeometry x="154.5" y="361.5" width="35" height="35" as="geometry" />
        </mxCell>
        <mxCell id="77" value="" style="ellipse;whiteSpace=wrap;html=1;aspect=fixed;" parent="1" vertex="1">
          <mxGeometry x="154.5" y="411.5" width="35" height="33" as="geometry" />
        </mxCell>
        <mxCell id="78" value="Hidden State" style="text;html=1;strokeColor=none;fillColor=none;align=center;verticalAlign=middle;whiteSpace=wrap;rounded=0;fontStyle=1" parent="1" vertex="1">
          <mxGeometry x="100" y="248.5" width="140" height="35" as="geometry" />
        </mxCell>
        <mxCell id="83" value="" style="endArrow=classic;html=1;rounded=0;exitX=1;exitY=0.5;exitDx=0;exitDy=0;entryX=0;entryY=0.5;entryDx=0;entryDy=0;" parent="1" source="74" target="35" edge="1">
          <mxGeometry width="50" height="50" relative="1" as="geometry">
            <mxPoint x="300" y="321.5" as="sourcePoint" />
            <mxPoint x="350" y="271.5" as="targetPoint" />
          </mxGeometry>
        </mxCell>
        <mxCell id="84" value="" style="endArrow=classic;html=1;rounded=0;exitX=1;exitY=0.5;exitDx=0;exitDy=0;entryX=0;entryY=0.5;entryDx=0;entryDy=0;" parent="1" source="74" target="34" edge="1">
          <mxGeometry width="50" height="50" relative="1" as="geometry">
            <mxPoint x="370" y="394.5" as="sourcePoint" />
            <mxPoint x="630" y="321.5" as="targetPoint" />
          </mxGeometry>
        </mxCell>
        <mxCell id="85" value="" style="endArrow=classic;html=1;rounded=0;exitX=1;exitY=0.5;exitDx=0;exitDy=0;entryX=0;entryY=0.5;entryDx=0;entryDy=0;" parent="1" source="76" edge="1" target="35">
          <mxGeometry width="50" height="50" relative="1" as="geometry">
            <mxPoint x="200" y="339.5" as="sourcePoint" />
            <mxPoint x="450" y="261.5" as="targetPoint" />
          </mxGeometry>
        </mxCell>
        <mxCell id="86" value="" style="endArrow=classic;html=1;rounded=0;exitX=1;exitY=0.5;exitDx=0;exitDy=0;entryX=0;entryY=0.5;entryDx=0;entryDy=0;" parent="1" source="76" target="34" edge="1">
          <mxGeometry width="50" height="50" relative="1" as="geometry">
            <mxPoint x="200" y="339.5" as="sourcePoint" />
            <mxPoint x="410" y="371.5" as="targetPoint" />
          </mxGeometry>
        </mxCell>
        <mxCell id="87" value="" style="endArrow=classic;html=1;rounded=0;exitX=1;exitY=0.5;exitDx=0;exitDy=0;entryX=0;entryY=0.5;entryDx=0;entryDy=0;" parent="1" source="77" target="35" edge="1">
          <mxGeometry width="50" height="50" relative="1" as="geometry">
            <mxPoint x="200" y="389.5" as="sourcePoint" />
            <mxPoint x="460" y="481.5" as="targetPoint" />
          </mxGeometry>
        </mxCell>
        <mxCell id="88" value="" style="endArrow=classic;html=1;rounded=0;exitX=1;exitY=0.5;exitDx=0;exitDy=0;entryX=0;entryY=0.5;entryDx=0;entryDy=0;" parent="1" source="77" target="34" edge="1">
          <mxGeometry width="50" height="50" relative="1" as="geometry">
            <mxPoint x="200" y="339.5" as="sourcePoint" />
            <mxPoint x="460" y="481.5" as="targetPoint" />
          </mxGeometry>
        </mxCell>
        <mxCell id="90" value="Hidden State calculation:&lt;br&gt;&lt;br&gt;&lt;div style=&quot;border-color: var(--border-color);&quot;&gt;hidden_state_t = ReLU((weight_hidden * hidden_state_t-1) + (weight_input * input_t) + bias)&lt;/div&gt;&lt;div style=&quot;border-color: var(--border-color);&quot;&gt;&lt;br style=&quot;border-color: var(--border-color); color: rgb(0, 0, 0); font-size: 12px; font-weight: 700;&quot;&gt;&lt;/div&gt;" style="shape=note;strokeWidth=2;fontSize=14;size=20;whiteSpace=wrap;html=1;fillColor=#fff2cc;strokeColor=#d6b656;fontColor=#666600;" parent="1" vertex="1">
          <mxGeometry x="-430" y="298.5" width="230" height="130" as="geometry" />
        </mxCell>
        <mxCell id="98" value="" style="edgeStyle=orthogonalEdgeStyle;rounded=0;orthogonalLoop=1;jettySize=auto;html=1;" edge="1" parent="1" source="99">
          <mxGeometry relative="1" as="geometry">
            <mxPoint x="-110" y="447.5" as="targetPoint" />
          </mxGeometry>
        </mxCell>
        <mxCell id="99" value="x" style="ellipse;whiteSpace=wrap;html=1;aspect=fixed;" vertex="1" parent="1">
          <mxGeometry x="-150" y="527.5" width="80" height="80" as="geometry" />
        </mxCell>
        <mxCell id="105" value="hidden state = [a, b, c]" style="edgeStyle=orthogonalEdgeStyle;rounded=0;orthogonalLoop=1;jettySize=auto;html=1;exitX=1;exitY=0.5;exitDx=0;exitDy=0;entryX=0;entryY=0.5;entryDx=0;entryDy=0;" edge="1" parent="1" source="100" target="13">
          <mxGeometry relative="1" as="geometry" />
        </mxCell>
        <mxCell id="100" value="" style="rounded=0;whiteSpace=wrap;html=1;" vertex="1" parent="1">
          <mxGeometry x="-180" y="248.5" width="140" height="230" as="geometry" />
        </mxCell>
        <mxCell id="101" value="Hidden State" style="text;html=1;strokeColor=none;fillColor=none;align=center;verticalAlign=middle;whiteSpace=wrap;rounded=0;fontStyle=1" vertex="1" parent="1">
          <mxGeometry x="-180" y="248.5" width="140" height="35" as="geometry" />
        </mxCell>
        <mxCell id="102" value="a" style="ellipse;whiteSpace=wrap;html=1;aspect=fixed;" vertex="1" parent="1">
          <mxGeometry x="-127.5" y="312.5" width="35" height="35" as="geometry" />
        </mxCell>
        <mxCell id="103" value="b" style="ellipse;whiteSpace=wrap;html=1;aspect=fixed;" vertex="1" parent="1">
          <mxGeometry x="-127.5" y="362.5" width="35" height="35" as="geometry" />
        </mxCell>
        <mxCell id="104" value="c" style="ellipse;whiteSpace=wrap;html=1;aspect=fixed;" vertex="1" parent="1">
          <mxGeometry x="-127.5" y="412.5" width="35" height="33" as="geometry" />
        </mxCell>
        <mxCell id="106" value="First timestep" style="text;html=1;strokeColor=none;fillColor=none;align=left;verticalAlign=middle;whiteSpace=wrap;rounded=0;" vertex="1" parent="1">
          <mxGeometry x="-180" y="214" width="130" height="30" as="geometry" />
        </mxCell>
        <mxCell id="107" value="Last timestep" style="text;html=1;strokeColor=none;fillColor=none;align=left;verticalAlign=middle;whiteSpace=wrap;rounded=0;" vertex="1" parent="1">
          <mxGeometry x="100" y="214" width="130" height="30" as="geometry" />
        </mxCell>
      </root>
    </mxGraphModel>
  </diagram>
</mxfile>
